<svg width="173" height="50" viewBox="0 0 173 50" fill="none" xmlns="http://www.w3.org/2000/svg">
<path d="M65.7617 34.75H62.0469L62.0703 32.0078H65.7617C66.6836 32.0078 67.4609 31.8008 68.0938 31.3867C68.7266 30.9648 69.2031 30.3516 69.5234 29.5469C69.8516 28.7422 70.0156 27.7695 70.0156 26.6289V25.7969C70.0156 24.9219 69.9219 24.1523 69.7344 23.4883C69.5547 22.8242 69.2852 22.2656 68.9258 21.8125C68.5664 21.3594 68.125 21.0195 67.6016 20.793C67.0781 20.5586 66.4766 20.4414 65.7969 20.4414H61.9766V17.6875H65.7969C66.9375 17.6875 67.9805 17.8828 68.9258 18.2734C69.8789 18.6562 70.7031 19.207 71.3984 19.9258C72.0938 20.6445 72.6289 21.5039 73.0039 22.5039C73.3867 23.4961 73.5781 24.6016 73.5781 25.8203V26.6289C73.5781 27.8398 73.3867 28.9453 73.0039 29.9453C72.6289 30.9453 72.0938 31.8047 71.3984 32.5234C70.7109 33.2344 69.8867 33.7852 68.9258 34.1758C67.9727 34.5586 66.918 34.75 65.7617 34.75ZM64.0391 17.6875V34.75H60.5234V17.6875H64.0391ZM79.4844 22.0703V34.75H76.0977V22.0703H79.4844ZM75.8867 18.7656C75.8867 18.2734 76.0586 17.8672 76.4023 17.5469C76.7461 17.2266 77.207 17.0664 77.7852 17.0664C78.3555 17.0664 78.8125 17.2266 79.1562 17.5469C79.5078 17.8672 79.6836 18.2734 79.6836 18.7656C79.6836 19.2578 79.5078 19.6641 79.1562 19.9844C78.8125 20.3047 78.3555 20.4648 77.7852 20.4648C77.207 20.4648 76.7461 20.3047 76.4023 19.9844C76.0586 19.6641 75.8867 19.2578 75.8867 18.7656ZM86.5859 32.2891L89.3984 22.0703H92.9258L88.6484 34.75H86.5156L86.5859 32.2891ZM84.6523 22.0703L87.4766 32.3008L87.5352 34.75H85.3906L81.1133 22.0703H84.6523ZM98 22.0703V34.75H94.6133V22.0703H98ZM94.4023 18.7656C94.4023 18.2734 94.5742 17.8672 94.918 17.5469C95.2617 17.2266 95.7227 17.0664 96.3008 17.0664C96.8711 17.0664 97.3281 17.2266 97.6719 17.5469C98.0234 17.8672 98.1992 18.2734 98.1992 18.7656C98.1992 19.2578 98.0234 19.6641 97.6719 19.9844C97.3281 20.3047 96.8711 20.4648 96.3008 20.4648C95.7227 20.4648 95.2617 20.3047 94.918 19.9844C94.5742 19.6641 94.4023 19.2578 94.4023 18.7656ZM108.277 31.9844V16.75H111.676V34.75H108.617L108.277 31.9844ZM100.262 28.5625V28.3164C100.262 27.3477 100.371 26.4688 100.59 25.6797C100.809 24.8828 101.129 24.1992 101.551 23.6289C101.973 23.0586 102.492 22.6172 103.109 22.3047C103.727 21.9922 104.43 21.8359 105.219 21.8359C105.961 21.8359 106.609 21.9922 107.164 22.3047C107.727 22.6172 108.203 23.0625 108.594 23.6406C108.992 24.2109 109.312 24.8867 109.555 25.668C109.797 26.4414 109.973 27.2891 110.082 28.2109V28.75C109.973 29.6328 109.797 30.4531 109.555 31.2109C109.312 31.9688 108.992 32.6328 108.594 33.2031C108.203 33.7656 107.727 34.2031 107.164 34.5156C106.602 34.8281 105.945 34.9844 105.195 34.9844C104.406 34.9844 103.703 34.8242 103.086 34.5039C102.477 34.1836 101.961 33.7344 101.539 33.1562C101.125 32.5781 100.809 31.8984 100.59 31.1172C100.371 30.3359 100.262 29.4844 100.262 28.5625ZM103.637 28.3164V28.5625C103.637 29.0859 103.676 29.5742 103.754 30.0273C103.84 30.4805 103.977 30.8828 104.164 31.2344C104.359 31.5781 104.609 31.8477 104.914 32.043C105.227 32.2305 105.605 32.3242 106.051 32.3242C106.629 32.3242 107.105 32.1953 107.48 31.9375C107.855 31.6719 108.141 31.3086 108.336 30.8477C108.539 30.3867 108.656 29.8555 108.688 29.2539V27.7188C108.664 27.2266 108.594 26.7852 108.477 26.3945C108.367 25.9961 108.203 25.6562 107.984 25.375C107.773 25.0938 107.508 24.875 107.188 24.7188C106.875 24.5625 106.504 24.4844 106.074 24.4844C105.637 24.4844 105.262 24.5859 104.949 24.7891C104.637 24.9844 104.383 25.2539 104.188 25.5977C104 25.9414 103.859 26.3477 103.766 26.8164C103.68 27.2773 103.637 27.7773 103.637 28.3164ZM120.148 34.9844C119.164 34.9844 118.281 34.8281 117.5 34.5156C116.719 34.1953 116.055 33.7539 115.508 33.1914C114.969 32.6289 114.555 31.9766 114.266 31.2344C113.977 30.4844 113.832 29.6875 113.832 28.8438V28.375C113.832 27.4141 113.969 26.5352 114.242 25.7383C114.516 24.9414 114.906 24.25 115.414 23.6641C115.93 23.0781 116.555 22.6289 117.289 22.3164C118.023 21.9961 118.852 21.8359 119.773 21.8359C120.672 21.8359 121.469 21.9844 122.164 22.2812C122.859 22.5781 123.441 23 123.91 23.5469C124.387 24.0938 124.746 24.75 124.988 25.5156C125.23 26.2734 125.352 27.1172 125.352 28.0469V29.4531H115.273V27.2031H122.035V26.9453C122.035 26.4766 121.949 26.0586 121.777 25.6914C121.613 25.3164 121.363 25.0195 121.027 24.8008C120.691 24.582 120.262 24.4727 119.738 24.4727C119.293 24.4727 118.91 24.5703 118.59 24.7656C118.27 24.9609 118.008 25.2344 117.805 25.5859C117.609 25.9375 117.461 26.3516 117.359 26.8281C117.266 27.2969 117.219 27.8125 117.219 28.375V28.8438C117.219 29.3516 117.289 29.8203 117.43 30.25C117.578 30.6797 117.785 31.0508 118.051 31.3633C118.324 31.6758 118.652 31.918 119.035 32.0898C119.426 32.2617 119.867 32.3477 120.359 32.3477C120.969 32.3477 121.535 32.2305 122.059 31.9961C122.59 31.7539 123.047 31.3906 123.43 30.9062L125.07 32.6875C124.805 33.0703 124.441 33.4375 123.98 33.7891C123.527 34.1406 122.98 34.4297 122.34 34.6562C121.699 34.875 120.969 34.9844 120.148 34.9844ZM130.578 24.7773V34.75H127.203V22.0703H130.367L130.578 24.7773ZM130.086 27.9648H129.172C129.172 27.0273 129.293 26.1836 129.535 25.4336C129.777 24.6758 130.117 24.0312 130.555 23.5C130.992 22.9609 131.512 22.5508 132.113 22.2695C132.723 21.9805 133.402 21.8359 134.152 21.8359C134.746 21.8359 135.289 21.9219 135.781 22.0938C136.273 22.2656 136.695 22.5391 137.047 22.9141C137.406 23.2891 137.68 23.7852 137.867 24.4023C138.062 25.0195 138.16 25.7734 138.16 26.6641V34.75H134.762V26.6523C134.762 26.0898 134.684 25.6523 134.527 25.3398C134.371 25.0273 134.141 24.8086 133.836 24.6836C133.539 24.5508 133.172 24.4844 132.734 24.4844C132.281 24.4844 131.887 24.5742 131.551 24.7539C131.223 24.9336 130.949 25.1836 130.73 25.5039C130.52 25.8164 130.359 26.1836 130.25 26.6055C130.141 27.0273 130.086 27.4805 130.086 27.9648Z" fill="#0F172A"/>
<path d="M144.453 17.6875V34.75H140.938V17.6875H144.453ZM151.25 24.9766V27.7188H143.492V24.9766H151.25ZM152.07 17.6875V20.4414H143.492V17.6875H152.07ZM157.461 22.0703V34.75H154.074V22.0703H157.461ZM153.863 18.7656C153.863 18.2734 154.035 17.8672 154.379 17.5469C154.723 17.2266 155.184 17.0664 155.762 17.0664C156.332 17.0664 156.789 17.2266 157.133 17.5469C157.484 17.8672 157.66 18.2734 157.66 18.7656C157.66 19.2578 157.484 19.6641 157.133 19.9844C156.789 20.3047 156.332 20.4648 155.762 20.4648C155.184 20.4648 154.723 20.3047 154.379 19.9844C154.035 19.6641 153.863 19.2578 153.863 18.7656ZM163.555 24.7773V34.75H160.18V22.0703H163.344L163.555 24.7773ZM163.062 27.9648H162.148C162.148 27.0273 162.27 26.1836 162.512 25.4336C162.754 24.6758 163.094 24.0312 163.531 23.5C163.969 22.9609 164.488 22.5508 165.09 22.2695C165.699 21.9805 166.379 21.8359 167.129 21.8359C167.723 21.8359 168.266 21.9219 168.758 22.0938C169.25 22.2656 169.672 22.5391 170.023 22.9141C170.383 23.2891 170.656 23.7852 170.844 24.4023C171.039 25.0195 171.137 25.7734 171.137 26.6641V34.75H167.738V26.6523C167.738 26.0898 167.66 25.6523 167.504 25.3398C167.348 25.0273 167.117 24.8086 166.812 24.6836C166.516 24.5508 166.148 24.4844 165.711 24.4844C165.258 24.4844 164.863 24.5742 164.527 24.7539C164.199 24.9336 163.926 25.1836 163.707 25.5039C163.496 25.8164 163.336 26.1836 163.227 26.6055C163.117 27.0273 163.062 27.4805 163.062 27.9648Z" fill="#2563EB"/>
<rect y="0.75" width="46" height="48.5" rx="23" fill="#2563EB"/>
<path fill-rule="evenodd" clip-rule="evenodd" d="M19 18C19 16.3431 20.3431 15 22 15H24C25.6569 15 27 16.3431 27 18V19.1707C27.3128 19.0602 27.6494 19 28 19H30C31.6569 19 33 20.3431 33 22V32C33 33.6569 31.6569 35 30 35H16C14.3431 35 13 33.6569 13 32V26C13 24.3431 14.3431 23 16 23H18C18.3506 23 18.6872 23.0602 19 23.1707V18ZM21 33H25V18C25 17.4477 24.5523 17 24 17H22C21.4477 17 21 17.4477 21 18V33ZM27 33H30C30.5523 33 31 32.5523 31 32V22C31 21.4477 30.5523 21 30 21H28C27.4477 21 27 21.4477 27 22V33ZM19 33V26C19 25.4477 18.5523 25 18 25H16C15.4477 25 15 25.4477 15 26V32C15 32.5523 15.4477 33 16 33H19Z" fill="white"/>
</svg>
